Patient4_TMGait_0pt2_02_left_25_GRF.mot
version=1
nRows=32
nColumns=19
inDegrees=no
endheader
time	F1x	F1y	F1z	M1x	M1y	M1z	F2x	F2y	F2z	M2x	M2y	M2z	EC1x	EC1y	EC1z	EC2x	EC2y	EC2z
56.1	-14.1867	13.0374	3.3867	-4.353	-8.1784	13.4796	-14.2104	808.5527	-38.9506	305.1466	56.3714	1008.5513	-0.0592	0.0182	-0.0073	-0.0462	0.0165	0.9585
56.1219	-9.7522	9.3271	2.4502	-3.1286	-5.8028	9.7078	-15.041	836.1009	-38.6178	315.0534	56.4044	1040.9819	-0.0592	0.0182	-0.0073	-0.0462	0.0165	0.9585
56.1437	-5.9054	6.1293	1.6497	-2.0739	-3.7475	6.4515	-15.756	861.1155	-38.3984	323.9398	56.3173	1070.1825	-0.0592	0.0182	-0.0073	-0.0462	0.0165	0.9585
56.1656	-2.9162	3.6705	1.0397	-1.2616	-2.1579	3.9544	-16.1196	879.1036	-38.318	330.0926	56.0221	1090.6769	-0.0592	0.0182	-0.0073	-0.0462	0.0165	0.9585
56.1874	-0.80634	1.9609	0.62053	-0.69449	-1.0459	2.2232	-15.927	886.7898	-38.3593	332.2542	55.429	1098.4525	-0.0592	0.0182	-0.0073	-0.0462	0.0165	0.9585
56.2093	0.53279	0.88845	0.36609	-0.33568	-0.35149	1.1348	-15.0473	882.9742	-38.4691	329.9664	54.4672	1092.0212	-0.0592	0.0182	-0.0073	-0.0462	0.0165	0.9585
56.2311	1.2676	0.28526	0.23905	-0.12924	0.016168	0.50559	-13.4267	868.7296	-38.5811	323.6529	53.1081	1072.6587	-0.0592	0.0182	-0.0073	-0.0462	0.0165	0.9585
56.253	1.5722	-0.037128	0.2016	-0.0131	0.1523	0.12648	-11.0898	846.9038	-38.6303	314.4303	51.3691	1043.8087	-0.0592	0.0182	-0.0073	-0.0462	0.0165	0.9585
56.2749	1.5995	-0.26152	0.21817	0.072785	0.14238	-0.20096	-8.1367	821.2208	-38.5537	303.7566	49.2936	1009.9828	-0.0592	0.0182	-0.0073	-0.0462	0.0165	0.9585
56.2967	1.4767	-0.54916	0.25641	0.18161	0.060716	-0.64735	-4.7001	795.3285	-38.3008	293.0608	46.931	975.593	-0.0592	0.0182	-0.0073	-0.0462	0.0165	0.9585
56.3186	1.2973	-1.0256	0.28843	0.35533	-0.031812	-1.3521	-0.90792	772.0809	-37.8484	283.4618	44.3339	944.092	-0.0592	0.0182	-0.0073	-0.0462	0.0165	0.9585
56.3404	1.1231	-1.7732	0.29135	0.62028	-0.087905	-2.4092	3.1208	753.176	-37.2193	275.626	41.5779	917.5534	-0.0592	0.0182	-0.0073	-0.0462	0.0165	0.9585
56.3623	0.99326	-2.8144	0.24419	0.98212	-0.066496	-3.8365	7.2587	739.1794	-36.4958	269.7745	38.7918	896.7108	-0.0592	0.0182	-0.0073	-0.0462	0.0165	0.9585
56.3841	0.93053	-4.0835	0.12619	1.4201	0.069697	-5.5388	11.358	729.7975	-35.8087	265.79	36.1618	881.2948	-0.0592	0.0182	-0.0073	-0.0462	0.0165	0.9585
56.406	0.94998	-5.3874	-0.081731	1.8698	0.35278	-7.255	15.2837	724.2487	-35.3054	263.3648	33.8908	870.4691	-0.0592	0.0182	-0.0073	-0.0462	0.0165	0.9585
56.4279	1.0635	-6.3562	-0.39054	2.204	0.80123	-8.4966	18.9447	721.582	-35.1183	262.1261	32.1519	863.1975	-0.0592	0.0182	-0.0073	-0.0462	0.0165	0.9585
56.4497	1.2733	-6.3994	-0.79514	2.2178	1.41	-8.483	22.2574	720.8183	-35.3333	261.693	31.0585	858.4119	-0.0592	0.0182	-0.0073	-0.0462	0.0165	0.9585
56.4716	1.5645	-4.6773	-1.268	1.6202	2.1381	-6.1046	25.1073	721.0313	-35.9777	261.7058	30.6658	855.1101	-0.0592	0.0182	-0.0073	-0.0462	0.0165	0.9585
56.4934	1.9008	-0.1012	-1.7445	0.036027	2.8878	0.070335	27.3657	721.4081	-37.0197	261.8485	30.9687	852.4121	-0.0592	0.0182	-0.0073	-0.0462	0.0165	0.9585
56.5153	2.2174	8.5968	-2.1044	-2.97	3.4768	11.6963	28.9176	721.2164	-38.3592	261.8384	31.8859	849.5123	-0.0592	0.0182	-0.0073	-0.0462	0.0165	0.9585
56.5371	2.4089	22.6895	-2.1552	-7.8335	3.61	30.4194	29.67	719.6146	-39.8346	261.3544	33.2642	845.4635	-0.0592	0.0182	-0.0073	-0.0462	0.0165	0.9585
56.559	2.3176	43.1144	-1.6199	-14.8756	2.8622	57.439	29.5615	715.3929	-41.2471	259.9386	34.8994	838.8743	-0.0592	0.0182	-0.0073	-0.0462	0.0165	0.9585
56.5809	1.7274	69.946	-0.14244	-24.1218	0.68375	92.809	28.5865	706.9068	-42.3841	256.974	36.5532	827.8265	-0.0592	0.0182	-0.0073	-0.0462	0.0165	0.9585
56.6027	0.46865	101.8344	2.606	-35.1022	-3.4109	134.6968	26.8375	692.4581	-43.0431	251.8271	37.9634	810.3035	-0.0592	0.0182	-0.0073	-0.0462	0.0165	0.9585
56.6246	-1.4121	135.933	6.6116	-46.8295	-9.362	179.3124	24.5319	671.1039	-43.0726	244.1477	38.8813	785.1179	-0.0592	0.0182	-0.0073	-0.0462	0.0165	0.9585
56.6464	-3.569	169.3933	11.3784	-58.3377	-16.3765	222.8607	22.0288	643.3845	-42.433	234.1333	39.1362	752.7527	-0.0592	0.0182	-0.0073	-0.0462	0.0165	0.9585
56.6683	-5.6636	201.282	16.2105	-69.3309	-23.4233	264.0805	19.7448	611.22	-41.1941	222.4903	38.6622	715.2713	-0.0592	0.0182	-0.0073	-0.0462	0.0165	0.9585
56.6901	-7.4958	231.7777	20.5545	-79.8852	-29.7177	303.2173	17.9519	576.9576	-39.4716	210.0868	37.4912	675.2709	-0.0592	0.0182	-0.0073	-0.0462	0.0165	0.9585
56.712	-8.9541	260.9945	24.12	-90.0314	-34.8527	340.4665	16.6729	542.5775	-37.4217	197.6553	35.7839	634.9971	-0.0592	0.0182	-0.0073	-0.0462	0.0165	0.9585
56.7339	-9.945	288.7613	26.8878	-99.6793	-38.7839	375.6624	15.748	509.4594	-35.2467	185.7023	33.8144	596.0623	-0.0592	0.0182	-0.0073	-0.0462	0.0165	0.9585
56.7557	-10.4258	314.7542	28.9876	-108.6813	-41.6802	408.4593	14.9668	478.4815	-33.1338	174.5464	31.8623	559.5249	-0.0592	0.0182	-0.0073	-0.0462	0.0165	0.9585
56.7776	-10.4584	338.646	30.538	-116.8981	-43.7338	438.5223	14.1738	450.1712	-31.2048	164.3776	30.1169	526.0421	-0.0592	0.0182	-0.0073	-0.0462	0.0165	0.9585
